<?xml version="1.0" encoding="iso-8859-1"?>
<!-- Generator: Adobe Illustrator 19.0.0, SVG Export Plug-In . SVG Version: 6.00 Build 0)  -->
<svg version="1.1" id="Layer_1" xmlns="http://www.w3.org/2000/svg" xmlns:xlink="http://www.w3.org/1999/xlink" x="0px" y="0px"
	 viewBox="0 0 511.999 511.999" style="enable-background:new 0 0 511.999 511.999;" xml:space="preserve">
<path style="fill:#8B8B8B;" d="M423.891,365.256h-59.064v-33.391h59.064c18.994,0,34.448-15.453,34.448-34.448
	c0-18.994-15.453-34.448-34.448-34.448h-38.102v-33.391h38.102c37.406,0,67.839,30.433,67.839,67.839
	S461.297,365.256,423.891,365.256z"/>
<path style="fill:#D7D7D7;" d="M225.932,445.932c-97.352,0-176.554-79.202-176.554-176.554v-82.953h353.107v82.953
	C402.485,366.73,323.283,445.932,225.932,445.932z"/>
<g>
	<path style="fill:#B0B0B0;" d="M225.932,445.932c0-109.916,0-259.506,0-259.506h176.553v82.953
		C402.485,366.73,323.283,445.932,225.932,445.932z"/>
	<rect x="20.269" y="478.608" style="fill:#B0B0B0;" width="411.325" height="33.391"/>
</g>
<rect x="225.936" y="478.608" style="fill:#8B8B8B;" width="205.668" height="33.391"/>
<path style="fill:#5B370D;" d="M310.66,130.342h-33.391c0-6.167-1.312-8.316-4.187-13.023C269.249,111.044,264,102.45,264,86.893
	s5.249-24.152,9.081-30.427c2.875-4.707,4.187-6.855,4.187-13.023c0-6.165-1.312-8.313-4.186-13.018C269.25,24.15,264,15.557,264,0
	h33.391c0,6.165,1.312,8.313,4.186,13.019c3.832,6.275,9.082,14.868,9.082,30.425c0,15.558-5.249,24.152-9.081,30.427
	c-2.875,4.707-4.187,6.855-4.187,13.023s1.312,8.316,4.187,13.023C305.411,106.19,310.66,114.785,310.66,130.342z"/>
<path style="fill:#82370D;" d="M187.862,130.342h-33.391c0-6.167-1.312-8.316-4.187-13.023c-3.832-6.275-9.081-14.869-9.081-30.426
	s5.249-24.152,9.081-30.427c2.875-4.707,4.187-6.855,4.187-13.023c0-6.165-1.312-8.313-4.186-13.018
	c-3.832-6.275-9.082-14.868-9.082-30.425h33.391c0,6.165,1.312,8.313,4.186,13.019c3.832,6.275,9.082,14.868,9.082,30.425
	c0,15.558-5.249,24.152-9.081,30.427c-2.875,4.707-4.187,6.855-4.187,13.023s1.312,8.316,4.187,13.023
	C182.613,106.19,187.862,114.785,187.862,130.342z"/>
<g>
</g>
<g>
</g>
<g>
</g>
<g>
</g>
<g>
</g>
<g>
</g>
<g>
</g>
<g>
</g>
<g>
</g>
<g>
</g>
<g>
</g>
<g>
</g>
<g>
</g>
<g>
</g>
<g>
</g>
</svg>
